<svg xmlns="http://www.w3.org/2000/svg" xmlns:xlink="http://www.w3.org/1999/xlink" width="600" zoomAndPan="magnify" viewBox="0 0 450 449.999984" height="600" preserveAspectRatio="xMidYMid meet" version="1.0"><defs><clipPath id="5f9082754f"><path d="M 0 154 L 162 154 L 162 347.863281 L 0 347.863281 Z M 0 154 " clip-rule="nonzero"/></clipPath><clipPath id="e4e3ec65b6"><path d="M 51 102 L 243 102 L 243 347.863281 L 51 347.863281 Z M 51 102 " clip-rule="nonzero"/></clipPath><clipPath id="fcc76f03c5"><path d="M 204 102 L 396 102 L 396 347.863281 L 204 347.863281 Z M 204 102 " clip-rule="nonzero"/></clipPath></defs><g clip-path="url(#5f9082754f)"><path fill="#044bb3" d="M 29.332031 161.988281 C 30.992188 161.027344 32.699219 160.148438 34.449219 159.355469 C 36.199219 158.5625 37.984375 157.855469 39.800781 157.238281 C 41.621094 156.621094 43.464844 156.09375 45.335938 155.65625 C 47.207031 155.21875 49.09375 154.875 51 154.625 C 52.90625 154.371094 54.816406 154.214844 56.738281 154.152344 C 58.65625 154.089844 60.574219 154.121094 62.492188 154.246094 C 64.410156 154.371094 66.316406 154.589844 68.210938 154.902344 C 70.105469 155.214844 71.984375 155.621094 73.839844 156.117188 C 75.695312 156.613281 77.519531 157.199219 79.320312 157.878906 C 81.117188 158.554688 82.878906 159.316406 84.601562 160.167969 C 86.324219 161.015625 88 161.949219 89.632812 162.964844 C 91.261719 163.976562 92.839844 165.070312 94.363281 166.238281 C 95.890625 167.410156 97.351562 168.652344 98.753906 169.964844 C 100.15625 171.277344 101.488281 172.65625 102.757812 174.101562 C 104.023438 175.546875 105.214844 177.050781 106.335938 178.609375 C 107.453125 180.171875 108.492188 181.785156 109.453125 183.449219 L 153.375 259.59375 C 154.335938 261.257812 155.214844 262.964844 156.007812 264.714844 C 156.800781 266.460938 157.507812 268.246094 158.125 270.066406 C 158.746094 271.886719 159.273438 273.730469 159.707031 275.601562 C 160.144531 277.472656 160.488281 279.359375 160.742188 281.265625 C 160.992188 283.167969 161.148438 285.082031 161.210938 287 C 161.277344 288.921875 161.246094 290.839844 161.121094 292.757812 C 160.992188 294.671875 160.773438 296.578125 160.460938 298.476562 C 160.148438 300.371094 159.746094 302.246094 159.246094 304.101562 C 158.75 305.957031 158.164062 307.785156 157.488281 309.582031 C 156.8125 311.378906 156.046875 313.140625 155.199219 314.863281 C 154.347656 316.585938 153.414062 318.265625 152.402344 319.894531 C 151.386719 321.527344 150.292969 323.105469 149.125 324.628906 C 147.957031 326.152344 146.714844 327.617188 145.402344 329.015625 C 144.085938 330.417969 142.707031 331.753906 141.261719 333.019531 C 139.820312 334.285156 138.316406 335.480469 136.753906 336.597656 C 135.191406 337.714844 133.578125 338.757812 131.914062 339.714844 C 130.253906 340.675781 128.546875 341.554688 126.796875 342.347656 C 125.046875 343.140625 123.261719 343.847656 121.441406 344.464844 C 119.625 345.082031 117.78125 345.609375 115.910156 346.046875 C 114.039062 346.484375 112.148438 346.828125 110.246094 347.082031 C 108.339844 347.332031 106.429688 347.488281 104.507812 347.550781 C 102.589844 347.613281 100.667969 347.585938 98.753906 347.457031 C 96.835938 347.332031 94.929688 347.113281 93.035156 346.800781 C 91.136719 346.488281 89.261719 346.085938 87.40625 345.585938 C 85.550781 345.089844 83.726562 344.503906 81.925781 343.828125 C 80.128906 343.148438 78.367188 342.386719 76.644531 341.539062 C 74.921875 340.6875 73.246094 339.753906 71.613281 338.742188 C 69.980469 337.726562 68.40625 336.632812 66.878906 335.464844 C 65.355469 334.296875 63.894531 333.054688 62.492188 331.738281 C 61.089844 330.425781 59.753906 329.046875 58.488281 327.601562 C 57.222656 326.160156 56.03125 324.65625 54.910156 323.09375 C 53.792969 321.53125 52.753906 319.917969 51.792969 318.253906 L 7.871094 242.082031 C 6.90625 240.417969 6.03125 238.710938 5.238281 236.960938 C 4.445312 235.210938 3.738281 233.429688 3.121094 231.609375 C 2.5 229.789062 1.972656 227.945312 1.535156 226.074219 C 1.101562 224.203125 0.757812 222.316406 0.503906 220.410156 C 0.253906 218.507812 0.0976562 216.59375 0.0351562 214.675781 C -0.03125 212.753906 0 210.835938 0.125 208.917969 C 0.25 207.003906 0.46875 205.097656 0.785156 203.199219 C 1.097656 201.304688 1.5 199.429688 1.996094 197.574219 C 2.496094 195.71875 3.082031 193.890625 3.757812 192.09375 C 4.433594 190.296875 5.199219 188.535156 6.046875 186.8125 C 6.898438 185.089844 7.828125 183.410156 8.84375 181.78125 C 9.859375 180.148438 10.949219 178.570312 12.121094 177.046875 C 13.289062 175.523438 14.53125 174.058594 15.84375 172.65625 C 17.160156 171.257812 18.539062 169.921875 19.980469 168.65625 C 21.425781 167.390625 22.929688 166.195312 24.492188 165.078125 C 26.054688 163.960938 27.667969 162.917969 29.332031 161.960938 Z M 29.332031 161.988281 " fill-opacity="1" fill-rule="evenodd"/></g><g clip-path="url(#e4e3ec65b6)"><path fill="#044bb3" d="M 212.839844 110.308594 C 211.175781 109.347656 209.46875 108.46875 207.71875 107.675781 C 205.96875 106.882812 204.183594 106.179688 202.367188 105.558594 C 200.546875 104.941406 198.703125 104.414062 196.832031 103.976562 C 194.960938 103.539062 193.074219 103.195312 191.167969 102.945312 C 189.265625 102.695312 187.351562 102.535156 185.433594 102.472656 C 183.511719 102.410156 181.59375 102.441406 179.675781 102.566406 C 177.757812 102.691406 175.851562 102.910156 173.957031 103.222656 C 172.0625 103.535156 170.1875 103.941406 168.332031 104.4375 C 166.476562 104.933594 164.648438 105.523438 162.851562 106.199219 C 161.050781 106.875 159.292969 107.636719 157.570312 108.488281 C 155.84375 109.335938 154.167969 110.269531 152.535156 111.285156 C 150.90625 112.300781 149.328125 113.390625 147.804688 114.5625 C 146.28125 115.730469 144.816406 116.972656 143.414062 118.285156 C 142.011719 119.597656 140.679688 120.976562 139.414062 122.421875 C 138.144531 123.867188 136.953125 125.371094 135.835938 126.933594 C 134.714844 128.492188 133.675781 130.105469 132.714844 131.769531 L 58.945312 259.59375 C 57.988281 261.257812 57.109375 262.964844 56.316406 264.714844 C 55.523438 266.464844 54.820312 268.246094 54.203125 270.066406 C 53.585938 271.886719 53.058594 273.730469 52.621094 275.601562 C 52.1875 277.472656 51.84375 279.359375 51.589844 281.265625 C 51.339844 283.167969 51.183594 285.082031 51.121094 287 C 51.058594 288.917969 51.089844 290.839844 51.214844 292.753906 C 51.339844 294.671875 51.558594 296.578125 51.871094 298.472656 C 52.183594 300.367188 52.589844 302.242188 53.085938 304.097656 C 53.585938 305.953125 54.171875 307.78125 54.847656 309.578125 C 55.523438 311.375 56.285156 313.136719 57.136719 314.859375 C 57.984375 316.582031 58.917969 318.257812 59.929688 319.890625 C 60.945312 321.523438 62.035156 323.101562 63.207031 324.625 C 64.375 326.148438 65.617188 327.613281 66.929688 329.011719 C 68.242188 330.414062 69.621094 331.75 71.0625 333.015625 C 72.507812 334.285156 74.011719 335.476562 75.570312 336.597656 C 77.132812 337.714844 78.746094 338.753906 80.410156 339.714844 C 82.070312 340.675781 83.777344 341.554688 85.527344 342.34375 C 87.277344 343.136719 89.0625 343.84375 90.882812 344.460938 C 92.699219 345.078125 94.542969 345.605469 96.414062 346.039062 C 98.285156 346.476562 100.171875 346.820312 102.078125 347.070312 C 103.984375 347.320312 105.894531 347.480469 107.8125 347.542969 C 109.734375 347.605469 111.652344 347.574219 113.570312 347.449219 C 115.484375 347.324219 117.390625 347.101562 119.289062 346.789062 C 121.183594 346.476562 123.058594 346.074219 124.914062 345.574219 C 126.769531 345.078125 128.59375 344.492188 130.394531 343.816406 C 132.191406 343.140625 133.949219 342.375 135.675781 341.527344 C 137.398438 340.675781 139.074219 339.746094 140.707031 338.730469 C 142.335938 337.71875 143.914062 336.625 145.4375 335.457031 C 146.960938 334.289062 148.425781 333.046875 149.828125 331.734375 C 151.230469 330.421875 152.566406 329.042969 153.832031 327.597656 C 155.097656 326.15625 156.292969 324.652344 157.410156 323.089844 C 158.53125 321.53125 159.570312 319.917969 160.53125 318.253906 L 234.300781 190.402344 C 235.261719 188.738281 236.140625 187.035156 236.933594 185.285156 C 237.730469 183.535156 238.4375 181.75 239.054688 179.929688 C 239.671875 178.113281 240.203125 176.265625 240.640625 174.398438 C 241.078125 172.527344 241.421875 170.636719 241.671875 168.734375 C 241.925781 166.828125 242.082031 164.914062 242.144531 162.996094 C 242.210938 161.074219 242.179688 159.15625 242.054688 157.238281 C 241.929688 155.320312 241.710938 153.414062 241.398438 151.519531 C 241.085938 149.625 240.679688 147.746094 240.183594 145.890625 C 239.683594 144.035156 239.097656 142.207031 238.421875 140.410156 C 237.746094 138.613281 236.980469 136.851562 236.132812 135.128906 C 235.28125 133.40625 234.347656 131.726562 233.332031 130.097656 C 232.320312 128.464844 231.226562 126.886719 230.054688 125.363281 C 228.886719 123.839844 227.644531 122.378906 226.328125 120.976562 C 225.015625 119.574219 223.636719 118.238281 222.191406 116.972656 C 220.746094 115.707031 219.242188 114.515625 217.679688 113.398438 C 216.117188 112.277344 214.503906 111.238281 212.839844 110.28125 Z M 212.839844 110.308594 " fill-opacity="1" fill-rule="evenodd"/></g><g clip-path="url(#fcc76f03c5)"><path fill="#044bb3" d="M 365.902344 110.308594 C 364.238281 109.347656 362.53125 108.46875 360.78125 107.675781 C 359.03125 106.882812 357.246094 106.179688 355.429688 105.558594 C 353.609375 104.941406 351.765625 104.414062 349.894531 103.976562 C 348.023438 103.539062 346.136719 103.195312 344.230469 102.945312 C 342.324219 102.695312 340.414062 102.535156 338.492188 102.472656 C 336.574219 102.410156 334.65625 102.441406 332.738281 102.566406 C 330.820312 102.691406 328.914062 102.910156 327.019531 103.222656 C 325.125 103.535156 323.25 103.941406 321.390625 104.4375 C 319.535156 104.933594 317.710938 105.523438 315.910156 106.199219 C 314.113281 106.875 312.351562 107.636719 310.628906 108.488281 C 308.90625 109.335938 307.230469 110.269531 305.597656 111.285156 C 303.96875 112.300781 302.390625 113.390625 300.867188 114.5625 C 299.34375 115.730469 297.878906 116.972656 296.476562 118.285156 C 295.074219 119.597656 293.742188 120.976562 292.472656 122.421875 C 291.207031 123.867188 290.015625 125.371094 288.898438 126.933594 C 287.777344 128.492188 286.738281 130.105469 285.777344 131.769531 L 212.007812 259.59375 C 211.046875 261.257812 210.171875 262.964844 209.375 264.714844 C 208.582031 266.460938 207.878906 268.246094 207.257812 270.066406 C 206.640625 271.886719 206.113281 273.730469 205.675781 275.601562 C 205.238281 277.472656 204.894531 279.359375 204.644531 281.265625 C 204.394531 283.167969 204.234375 285.082031 204.171875 287 C 204.109375 288.921875 204.140625 290.839844 204.265625 292.757812 C 204.390625 294.671875 204.609375 296.578125 204.921875 298.476562 C 205.234375 300.371094 205.640625 302.246094 206.136719 304.101562 C 206.632812 305.957031 207.222656 307.785156 207.898438 309.582031 C 208.574219 311.378906 209.339844 313.140625 210.1875 314.863281 C 211.039062 316.585938 211.96875 318.265625 212.984375 319.894531 C 214 321.527344 215.089844 323.105469 216.261719 324.628906 C 217.429688 326.152344 218.671875 327.617188 219.984375 329.015625 C 221.296875 330.417969 222.675781 331.753906 224.121094 333.019531 C 225.566406 334.285156 227.070312 335.480469 228.632812 336.597656 C 230.191406 337.714844 231.804688 338.757812 233.46875 339.714844 C 235.132812 340.675781 236.839844 341.554688 238.589844 342.347656 C 240.339844 343.140625 242.125 343.847656 243.941406 344.464844 C 245.761719 345.082031 247.605469 345.609375 249.476562 346.046875 C 251.347656 346.484375 253.234375 346.828125 255.140625 347.082031 C 257.042969 347.332031 258.957031 347.488281 260.875 347.550781 C 262.796875 347.613281 264.714844 347.585938 266.632812 347.457031 C 268.550781 347.332031 270.457031 347.113281 272.351562 346.800781 C 274.246094 346.488281 276.121094 346.085938 277.976562 345.585938 C 279.832031 345.089844 281.660156 344.503906 283.457031 343.828125 C 285.257812 343.148438 287.015625 342.386719 288.738281 341.539062 C 290.464844 340.6875 292.140625 339.753906 293.773438 338.742188 C 295.402344 337.726562 296.980469 336.632812 298.503906 335.464844 C 300.027344 334.296875 301.492188 333.054688 302.894531 331.738281 C 304.296875 330.425781 305.628906 329.046875 306.894531 327.601562 C 308.164062 326.160156 309.355469 324.65625 310.472656 323.09375 C 311.59375 321.53125 312.632812 319.917969 313.59375 318.253906 L 387.390625 190.429688 C 388.351562 188.769531 389.230469 187.0625 390.023438 185.3125 C 390.816406 183.5625 391.523438 181.777344 392.140625 179.960938 C 392.757812 178.140625 393.285156 176.296875 393.722656 174.425781 C 394.160156 172.554688 394.503906 170.667969 394.753906 168.761719 C 395.003906 166.855469 395.164062 164.945312 395.226562 163.023438 C 395.289062 161.105469 395.257812 159.1875 395.132812 157.269531 C 395.007812 155.351562 394.789062 153.445312 394.476562 151.550781 C 394.164062 149.65625 393.757812 147.777344 393.261719 145.921875 C 392.765625 144.066406 392.175781 142.242188 391.5 140.441406 C 390.824219 138.644531 390.0625 136.882812 389.210938 135.160156 C 388.363281 133.4375 387.429688 131.761719 386.414062 130.128906 C 385.402344 128.5 384.308594 126.921875 383.140625 125.398438 C 381.96875 123.871094 380.726562 122.410156 379.414062 121.007812 C 378.101562 119.605469 376.722656 118.273438 375.277344 117.003906 C 373.832031 115.738281 372.328125 114.546875 370.769531 113.425781 C 369.207031 112.308594 367.59375 111.269531 365.929688 110.308594 Z M 365.902344 110.308594 " fill-opacity="1" fill-rule="evenodd"/></g><path fill="#044bb3" d="M 348.644531 295.621094 C 348.644531 293.960938 348.726562 292.304688 348.890625 290.652344 C 349.050781 289 349.296875 287.363281 349.621094 285.734375 C 349.941406 284.105469 350.347656 282.496094 350.828125 280.910156 C 351.308594 279.320312 351.867188 277.761719 352.503906 276.226562 C 353.136719 274.695312 353.847656 273.195312 354.628906 271.730469 C 355.410156 270.265625 356.265625 268.84375 357.1875 267.464844 C 358.109375 266.085938 359.097656 264.753906 360.148438 263.472656 C 361.203125 262.1875 362.316406 260.960938 363.488281 259.785156 C 364.664062 258.613281 365.890625 257.5 367.171875 256.445312 C 368.457031 255.394531 369.789062 254.40625 371.167969 253.484375 C 372.546875 252.5625 373.96875 251.710938 375.433594 250.925781 C 376.898438 250.144531 378.394531 249.4375 379.929688 248.800781 C 381.460938 248.164062 383.023438 247.605469 384.613281 247.125 C 386.199219 246.644531 387.808594 246.242188 389.4375 245.917969 C 391.0625 245.59375 392.703125 245.351562 394.355469 245.1875 C 396.007812 245.023438 397.664062 244.941406 399.324219 244.941406 C 400.984375 244.941406 402.636719 245.023438 404.289062 245.1875 C 405.941406 245.351562 407.582031 245.59375 409.210938 245.917969 C 410.835938 246.242188 412.445312 246.644531 414.035156 247.125 C 415.621094 247.605469 417.183594 248.164062 418.714844 248.800781 C 420.25 249.4375 421.75 250.144531 423.210938 250.925781 C 424.675781 251.710938 426.097656 252.5625 427.476562 253.484375 C 428.859375 254.40625 430.1875 255.394531 431.472656 256.445312 C 432.753906 257.5 433.984375 258.613281 435.15625 259.785156 C 436.332031 260.960938 437.445312 262.1875 438.496094 263.472656 C 439.550781 264.753906 440.539062 266.085938 441.460938 267.464844 C 442.382812 268.84375 443.234375 270.265625 444.015625 271.730469 C 444.796875 273.195312 445.507812 274.695312 446.140625 276.226562 C 446.777344 277.761719 447.335938 279.320312 447.816406 280.910156 C 448.300781 282.496094 448.703125 284.105469 449.027344 285.734375 C 449.351562 287.363281 449.59375 289 449.757812 290.652344 C 449.917969 292.304688 450 293.960938 450 295.621094 C 450 297.28125 449.917969 298.9375 449.757812 300.585938 C 449.59375 302.238281 449.351562 303.878906 449.027344 305.507812 C 448.703125 307.132812 448.300781 308.742188 447.816406 310.332031 C 447.335938 311.917969 446.777344 313.480469 446.140625 315.011719 C 445.507812 316.546875 444.796875 318.046875 444.015625 319.507812 C 443.234375 320.972656 442.382812 322.394531 441.460938 323.773438 C 440.539062 325.15625 439.550781 326.488281 438.496094 327.769531 C 437.445312 329.050781 436.332031 330.28125 435.15625 331.453125 C 433.984375 332.628906 432.753906 333.742188 431.472656 334.792969 C 430.1875 335.847656 428.859375 336.835938 427.476562 337.757812 C 426.097656 338.679688 424.675781 339.53125 423.210938 340.3125 C 421.75 341.097656 420.25 341.804688 418.714844 342.441406 C 417.183594 343.074219 415.621094 343.632812 414.035156 344.117188 C 412.445312 344.597656 410.835938 345 409.210938 345.324219 C 407.582031 345.648438 405.941406 345.890625 404.289062 346.054688 C 402.636719 346.214844 400.984375 346.296875 399.324219 346.296875 C 397.664062 346.296875 396.007812 346.214844 394.355469 346.054688 C 392.703125 345.890625 391.0625 345.648438 389.4375 345.324219 C 387.808594 345 386.199219 344.597656 384.613281 344.117188 C 383.023438 343.632812 381.460938 343.074219 379.929688 342.441406 C 378.394531 341.804688 376.898438 341.097656 375.433594 340.3125 C 373.96875 339.53125 372.546875 338.679688 371.167969 337.757812 C 369.789062 336.835938 368.457031 335.847656 367.171875 334.792969 C 365.890625 333.742188 364.664062 332.628906 363.488281 331.453125 C 362.316406 330.28125 361.203125 329.050781 360.148438 327.769531 C 359.097656 326.488281 358.109375 325.15625 357.1875 323.773438 C 356.265625 322.394531 355.410156 320.972656 354.628906 319.507812 C 353.847656 318.046875 353.136719 316.546875 352.503906 315.011719 C 351.867188 313.480469 351.308594 311.917969 350.828125 310.332031 C 350.347656 308.742188 349.941406 307.132812 349.621094 305.507812 C 349.296875 303.878906 349.050781 302.238281 348.890625 300.585938 C 348.726562 298.9375 348.644531 297.28125 348.644531 295.621094 Z M 348.644531 295.621094 " fill-opacity="1" fill-rule="evenodd"/></svg>