<svg xmlns="http://www.w3.org/2000/svg" xmlns:xlink="http://www.w3.org/1999/xlink" width="1202" zoomAndPan="magnify" viewBox="0 0 901.5 248.999984" height="332" preserveAspectRatio="xMidYMid meet" version="1.0"><defs><g/><clipPath id="2c36061faf"><path d="M 5.996094 93 L 77 93 L 77 178.417969 L 5.996094 178.417969 Z M 5.996094 93 " clip-rule="nonzero"/></clipPath><clipPath id="a6a6c7e018"><path d="M 28 70.476562 L 113 70.476562 L 113 178.417969 L 28 178.417969 Z M 28 70.476562 " clip-rule="nonzero"/></clipPath><clipPath id="20a6345e75"><path d="M 95 70.476562 L 180 70.476562 L 180 178.417969 L 95 178.417969 Z M 95 70.476562 " clip-rule="nonzero"/></clipPath><clipPath id="754fb87859"><path d="M 158 133 L 203.136719 133 L 203.136719 178 L 158 178 Z M 158 133 " clip-rule="nonzero"/></clipPath></defs><g clip-path="url(#2c36061faf)"><path fill="#004aad" d="M 18.863281 96.855469 C 19.59375 96.433594 20.34375 96.050781 21.109375 95.699219 C 21.878906 95.351562 22.660156 95.042969 23.457031 94.773438 C 24.257812 94.5 25.066406 94.269531 25.886719 94.078125 C 26.707031 93.886719 27.535156 93.734375 28.371094 93.625 C 29.207031 93.515625 30.046875 93.445312 30.886719 93.417969 C 31.730469 93.390625 32.570312 93.402344 33.414062 93.457031 C 34.253906 93.515625 35.089844 93.609375 35.921875 93.746094 C 36.753906 93.882812 37.578125 94.0625 38.390625 94.28125 C 39.203125 94.5 40.007812 94.753906 40.796875 95.050781 C 41.582031 95.347656 42.355469 95.683594 43.113281 96.058594 C 43.867188 96.429688 44.605469 96.839844 45.320312 97.285156 C 46.035156 97.730469 46.726562 98.207031 47.394531 98.722656 C 48.066406 99.234375 48.707031 99.777344 49.320312 100.355469 C 49.9375 100.929688 50.523438 101.535156 51.078125 102.171875 C 51.632812 102.804688 52.15625 103.464844 52.648438 104.148438 C 53.136719 104.832031 53.59375 105.542969 54.015625 106.269531 L 73.285156 139.675781 C 73.707031 140.40625 74.09375 141.15625 74.441406 141.921875 C 74.789062 142.691406 75.097656 143.472656 75.367188 144.269531 C 75.640625 145.070312 75.871094 145.878906 76.0625 146.699219 C 76.253906 147.519531 76.40625 148.347656 76.515625 149.183594 C 76.625 150.019531 76.695312 150.859375 76.722656 151.699219 C 76.75 152.542969 76.738281 153.386719 76.683594 154.226562 C 76.628906 155.066406 76.53125 155.902344 76.394531 156.734375 C 76.257812 157.566406 76.078125 158.390625 75.859375 159.203125 C 75.644531 160.015625 75.386719 160.820312 75.089844 161.609375 C 74.792969 162.398438 74.457031 163.167969 74.085938 163.925781 C 73.710938 164.679688 73.300781 165.417969 72.859375 166.132812 C 72.414062 166.847656 71.933594 167.539062 71.421875 168.207031 C 70.90625 168.878906 70.363281 169.519531 69.785156 170.132812 C 69.210938 170.75 68.605469 171.335938 67.972656 171.890625 C 67.335938 172.445312 66.679688 172.96875 65.992188 173.460938 C 65.308594 173.949219 64.601562 174.40625 63.871094 174.828125 C 63.140625 175.25 62.390625 175.632812 61.625 175.984375 C 60.855469 176.332031 60.074219 176.640625 59.277344 176.910156 C 58.476562 177.183594 57.667969 177.414062 56.847656 177.605469 C 56.027344 177.796875 55.199219 177.949219 54.363281 178.058594 C 53.527344 178.167969 52.6875 178.238281 51.847656 178.265625 C 51.003906 178.292969 50.160156 178.28125 49.320312 178.226562 C 48.480469 178.167969 47.644531 178.074219 46.8125 177.9375 C 45.980469 177.800781 45.15625 177.621094 44.34375 177.402344 C 43.53125 177.183594 42.726562 176.929688 41.9375 176.632812 C 41.148438 176.335938 40.378906 176 39.621094 175.625 C 38.867188 175.253906 38.128906 174.84375 37.414062 174.398438 C 36.699219 173.953125 36.007812 173.476562 35.339844 172.960938 C 34.667969 172.449219 34.027344 171.90625 33.414062 171.328125 C 32.796875 170.753906 32.210938 170.148438 31.65625 169.511719 C 31.101562 168.878906 30.578125 168.21875 30.085938 167.535156 C 29.597656 166.851562 29.140625 166.140625 28.71875 165.414062 L 9.449219 131.992188 C 9.027344 131.265625 8.640625 130.515625 8.292969 129.75 C 7.945312 128.980469 7.636719 128.199219 7.363281 127.398438 C 7.09375 126.601562 6.863281 125.792969 6.671875 124.972656 C 6.480469 124.152344 6.328125 123.324219 6.21875 122.488281 C 6.109375 121.652344 6.039062 120.8125 6.011719 119.96875 C 5.984375 119.128906 5.996094 118.285156 6.050781 117.445312 C 6.105469 116.605469 6.203125 115.769531 6.339844 114.9375 C 6.476562 114.105469 6.65625 113.28125 6.875 112.46875 C 7.089844 111.652344 7.347656 110.851562 7.644531 110.0625 C 7.941406 109.273438 8.277344 108.503906 8.648438 107.746094 C 9.023438 106.992188 9.433594 106.253906 9.875 105.539062 C 10.320312 104.824219 10.800781 104.132812 11.3125 103.460938 C 11.828125 102.792969 12.371094 102.152344 12.949219 101.535156 C 13.523438 100.921875 14.128906 100.335938 14.761719 99.78125 C 15.398438 99.226562 16.054688 98.703125 16.742188 98.210938 C 17.425781 97.71875 18.132812 97.265625 18.863281 96.84375 Z M 18.863281 96.855469 " fill-opacity="1" fill-rule="evenodd"/></g><g clip-path="url(#a6a6c7e018)"><path fill="#004aad" d="M 99.371094 74.183594 C 98.640625 73.761719 97.894531 73.378906 97.125 73.027344 C 96.359375 72.679688 95.574219 72.371094 94.777344 72.101562 C 93.980469 71.828125 93.171875 71.597656 92.351562 71.40625 C 91.527344 71.214844 90.699219 71.0625 89.867188 70.953125 C 89.03125 70.84375 88.191406 70.773438 87.347656 70.746094 C 86.507812 70.71875 85.664062 70.730469 84.824219 70.785156 C 83.980469 70.839844 83.144531 70.9375 82.3125 71.074219 C 81.484375 71.210938 80.660156 71.390625 79.847656 71.609375 C 79.03125 71.824219 78.230469 72.082031 77.441406 72.378906 C 76.652344 72.675781 75.878906 73.011719 75.125 73.382812 C 74.367188 73.757812 73.632812 74.167969 72.917969 74.613281 C 72.203125 75.054688 71.507812 75.535156 70.839844 76.046875 C 70.171875 76.5625 69.53125 77.105469 68.914062 77.683594 C 68.300781 78.257812 67.714844 78.863281 67.160156 79.496094 C 66.601562 80.132812 66.082031 80.792969 65.589844 81.476562 C 65.097656 82.160156 64.644531 82.867188 64.222656 83.597656 L 31.859375 139.675781 C 31.4375 140.40625 31.050781 141.15625 30.703125 141.921875 C 30.355469 142.691406 30.046875 143.472656 29.777344 144.273438 C 29.503906 145.070312 29.273438 145.878906 29.082031 146.699219 C 28.890625 147.519531 28.742188 148.347656 28.628906 149.183594 C 28.519531 150.019531 28.453125 150.859375 28.425781 151.699219 C 28.398438 152.542969 28.410156 153.382812 28.464844 154.226562 C 28.519531 155.066406 28.617188 155.902344 28.753906 156.734375 C 28.890625 157.566406 29.070312 158.386719 29.285156 159.203125 C 29.503906 160.015625 29.761719 160.816406 30.058594 161.605469 C 30.355469 162.394531 30.691406 163.167969 31.0625 163.921875 C 31.4375 164.679688 31.84375 165.414062 32.289062 166.128906 C 32.734375 166.847656 33.214844 167.539062 33.726562 168.207031 C 34.238281 168.875 34.785156 169.515625 35.359375 170.132812 C 35.933594 170.746094 36.539062 171.332031 37.171875 171.890625 C 37.808594 172.445312 38.464844 172.96875 39.152344 173.460938 C 39.835938 173.949219 40.542969 174.40625 41.273438 174.828125 C 42.003906 175.25 42.75 175.632812 43.519531 175.980469 C 44.285156 176.328125 45.070312 176.636719 45.867188 176.910156 C 46.664062 177.179688 47.476562 177.410156 48.296875 177.601562 C 49.117188 177.792969 49.945312 177.945312 50.78125 178.054688 C 51.617188 178.164062 52.453125 178.234375 53.296875 178.261719 C 54.140625 178.289062 54.980469 178.273438 55.820312 178.21875 C 56.660156 178.164062 57.5 178.070312 58.328125 177.929688 C 59.160156 177.792969 59.984375 177.617188 60.796875 177.398438 C 61.613281 177.179688 62.414062 176.921875 63.203125 176.625 C 63.992188 176.328125 64.761719 175.996094 65.519531 175.621094 C 66.273438 175.25 67.011719 174.839844 67.726562 174.394531 C 68.441406 173.949219 69.132812 173.472656 69.800781 172.960938 C 70.472656 172.445312 71.113281 171.902344 71.726562 171.324219 C 72.34375 170.75 72.929688 170.144531 73.484375 169.511719 C 74.039062 168.878906 74.5625 168.21875 75.054688 167.535156 C 75.546875 166.847656 76.003906 166.140625 76.421875 165.414062 L 108.789062 109.320312 C 109.210938 108.59375 109.59375 107.84375 109.945312 107.074219 C 110.292969 106.308594 110.601562 105.527344 110.875 104.726562 C 111.144531 103.929688 111.375 103.121094 111.570312 102.300781 C 111.761719 101.480469 111.910156 100.652344 112.023438 99.816406 C 112.132812 98.980469 112.203125 98.140625 112.230469 97.296875 C 112.257812 96.457031 112.246094 95.613281 112.1875 94.773438 C 112.132812 93.929688 112.039062 93.09375 111.902344 92.261719 C 111.765625 91.429688 111.585938 90.609375 111.367188 89.792969 C 111.148438 88.980469 110.894531 88.179688 110.597656 87.390625 C 110.300781 86.601562 109.964844 85.828125 109.589844 85.070312 C 109.21875 84.316406 108.808594 83.582031 108.363281 82.863281 C 107.917969 82.148438 107.4375 81.457031 106.925781 80.789062 C 106.414062 80.121094 105.867188 79.476562 105.289062 78.863281 C 104.714844 78.246094 104.109375 77.664062 103.476562 77.105469 C 102.839844 76.550781 102.179688 76.027344 101.496094 75.539062 C 100.808594 75.046875 100.101562 74.59375 99.371094 74.171875 Z M 99.371094 74.183594 " fill-opacity="1" fill-rule="evenodd"/></g><g clip-path="url(#20a6345e75)"><path fill="#004aad" d="M 166.523438 74.183594 C 165.792969 73.761719 165.042969 73.378906 164.277344 73.027344 C 163.507812 72.679688 162.726562 72.371094 161.929688 72.101562 C 161.128906 71.828125 160.320312 71.597656 159.5 71.40625 C 158.679688 71.214844 157.851562 71.0625 157.015625 70.953125 C 156.179688 70.84375 155.339844 70.773438 154.5 70.746094 C 153.65625 70.71875 152.816406 70.730469 151.972656 70.785156 C 151.132812 70.839844 150.296875 70.9375 149.464844 71.074219 C 148.632812 71.210938 147.808594 71.390625 146.996094 71.609375 C 146.183594 71.824219 145.378906 72.082031 144.59375 72.378906 C 143.804688 72.675781 143.03125 73.011719 142.273438 73.382812 C 141.519531 73.757812 140.785156 74.167969 140.066406 74.613281 C 139.351562 75.054688 138.660156 75.535156 137.992188 76.046875 C 137.324219 76.5625 136.679688 77.105469 136.066406 77.683594 C 135.449219 78.257812 134.863281 78.863281 134.308594 79.496094 C 133.753906 80.132812 133.230469 80.792969 132.738281 81.476562 C 132.25 82.160156 131.792969 82.867188 131.371094 83.597656 L 99.007812 139.675781 C 98.585938 140.40625 98.203125 141.15625 97.851562 141.921875 C 97.503906 142.691406 97.195312 143.472656 96.925781 144.269531 C 96.652344 145.070312 96.421875 145.878906 96.230469 146.699219 C 96.039062 147.519531 95.886719 148.347656 95.777344 149.183594 C 95.667969 150.019531 95.597656 150.859375 95.570312 151.699219 C 95.542969 152.542969 95.554688 153.386719 95.609375 154.226562 C 95.667969 155.066406 95.761719 155.902344 95.898438 156.734375 C 96.035156 157.566406 96.214844 158.390625 96.433594 159.203125 C 96.652344 160.015625 96.90625 160.820312 97.203125 161.609375 C 97.5 162.398438 97.835938 163.167969 98.210938 163.925781 C 98.582031 164.679688 98.992188 165.417969 99.4375 166.132812 C 99.882812 166.847656 100.359375 167.539062 100.875 168.207031 C 101.386719 168.878906 101.929688 169.519531 102.507812 170.132812 C 103.082031 170.75 103.6875 171.335938 104.324219 171.890625 C 104.957031 172.445312 105.617188 172.96875 106.300781 173.460938 C 106.984375 173.949219 107.695312 174.40625 108.421875 174.828125 C 109.152344 175.25 109.902344 175.632812 110.667969 175.984375 C 111.4375 176.332031 112.21875 176.640625 113.019531 176.910156 C 113.816406 177.183594 114.625 177.414062 115.445312 177.605469 C 116.265625 177.796875 117.09375 177.949219 117.929688 178.058594 C 118.765625 178.167969 119.605469 178.238281 120.445312 178.265625 C 121.289062 178.292969 122.132812 178.28125 122.972656 178.226562 C 123.8125 178.167969 124.648438 178.074219 125.480469 177.9375 C 126.3125 177.800781 127.136719 177.621094 127.949219 177.402344 C 128.765625 177.183594 129.566406 176.929688 130.355469 176.632812 C 131.144531 176.335938 131.914062 176 132.671875 175.625 C 133.425781 175.253906 134.164062 174.84375 134.878906 174.398438 C 135.59375 173.953125 136.285156 173.476562 136.957031 172.960938 C 137.625 172.449219 138.265625 171.90625 138.878906 171.328125 C 139.496094 170.753906 140.082031 170.148438 140.636719 169.511719 C 141.191406 168.878906 141.714844 168.21875 142.207031 167.535156 C 142.695312 166.851562 143.152344 166.140625 143.574219 165.414062 L 175.949219 109.335938 C 176.371094 108.605469 176.757812 107.855469 177.105469 107.089844 C 177.453125 106.320312 177.761719 105.539062 178.035156 104.738281 C 178.304688 103.941406 178.535156 103.132812 178.730469 102.3125 C 178.921875 101.492188 179.070312 100.664062 179.179688 99.828125 C 179.292969 98.992188 179.359375 98.152344 179.386719 97.3125 C 179.417969 96.46875 179.402344 95.625 179.347656 94.785156 C 179.292969 93.945312 179.195312 93.109375 179.058594 92.277344 C 178.921875 91.445312 178.746094 90.621094 178.527344 89.808594 C 178.308594 88.992188 178.050781 88.191406 177.753906 87.402344 C 177.457031 86.613281 177.121094 85.84375 176.75 85.085938 C 176.375 84.332031 175.96875 83.59375 175.523438 82.878906 C 175.078125 82.164062 174.597656 81.472656 174.085938 80.800781 C 173.574219 80.132812 173.027344 79.492188 172.453125 78.878906 C 171.875 78.261719 171.269531 77.675781 170.636719 77.121094 C 170.003906 76.566406 169.34375 76.042969 168.65625 75.550781 C 167.972656 75.0625 167.265625 74.605469 166.535156 74.183594 Z M 166.523438 74.183594 " fill-opacity="1" fill-rule="evenodd"/></g><g clip-path="url(#754fb87859)"><path fill="#004aad" d="M 158.953125 155.480469 C 158.953125 154.753906 158.988281 154.027344 159.058594 153.304688 C 159.132812 152.578125 159.238281 151.859375 159.378906 151.144531 C 159.523438 150.429688 159.699219 149.726562 159.910156 149.027344 C 160.121094 148.332031 160.367188 147.648438 160.644531 146.972656 C 160.921875 146.300781 161.234375 145.644531 161.578125 145 C 161.921875 144.359375 162.296875 143.734375 162.699219 143.128906 C 163.105469 142.523438 163.539062 141.941406 164 141.378906 C 164.460938 140.816406 164.949219 140.277344 165.464844 139.761719 C 165.980469 139.246094 166.519531 138.757812 167.082031 138.296875 C 167.644531 137.835938 168.226562 137.402344 168.832031 136.996094 C 169.4375 136.59375 170.0625 136.21875 170.703125 135.875 C 171.347656 135.53125 172.003906 135.21875 172.675781 134.941406 C 173.351562 134.664062 174.035156 134.417969 174.730469 134.207031 C 175.429688 133.996094 176.132812 133.820312 176.847656 133.675781 C 177.5625 133.535156 178.28125 133.429688 179.007812 133.355469 C 179.730469 133.285156 180.457031 133.25 181.1875 133.25 C 181.914062 133.25 182.640625 133.285156 183.363281 133.355469 C 184.089844 133.429688 184.808594 133.535156 185.523438 133.675781 C 186.238281 133.820312 186.941406 133.996094 187.640625 134.207031 C 188.335938 134.417969 189.019531 134.664062 189.695312 134.941406 C 190.367188 135.21875 191.023438 135.53125 191.667969 135.875 C 192.308594 136.21875 192.933594 136.59375 193.539062 136.996094 C 194.144531 137.402344 194.726562 137.835938 195.289062 138.296875 C 195.851562 138.757812 196.390625 139.246094 196.90625 139.761719 C 197.421875 140.277344 197.910156 140.816406 198.371094 141.378906 C 198.832031 141.941406 199.265625 142.523438 199.671875 143.128906 C 200.074219 143.734375 200.449219 144.359375 200.792969 145 C 201.136719 145.644531 201.449219 146.300781 201.726562 146.972656 C 202.003906 147.648438 202.25 148.332031 202.460938 149.027344 C 202.671875 149.726562 202.847656 150.429688 202.992188 151.144531 C 203.132812 151.859375 203.238281 152.578125 203.3125 153.304688 C 203.382812 154.027344 203.417969 154.753906 203.417969 155.480469 C 203.417969 156.210938 203.382812 156.9375 203.3125 157.660156 C 203.238281 158.386719 203.132812 159.105469 202.992188 159.820312 C 202.847656 160.535156 202.671875 161.238281 202.460938 161.9375 C 202.25 162.632812 202.003906 163.316406 201.726562 163.992188 C 201.449219 164.664062 201.136719 165.320312 200.792969 165.960938 C 200.449219 166.605469 200.074219 167.230469 199.671875 167.835938 C 199.265625 168.441406 198.832031 169.023438 198.371094 169.585938 C 197.910156 170.148438 197.421875 170.6875 196.90625 171.203125 C 196.390625 171.71875 195.851562 172.207031 195.289062 172.667969 C 194.726562 173.128906 194.144531 173.5625 193.539062 173.96875 C 192.933594 174.371094 192.308594 174.746094 191.667969 175.089844 C 191.023438 175.433594 190.367188 175.742188 189.695312 176.023438 C 189.019531 176.300781 188.335938 176.546875 187.640625 176.757812 C 186.941406 176.96875 186.238281 177.144531 185.523438 177.289062 C 184.808594 177.429688 184.089844 177.535156 183.363281 177.609375 C 182.640625 177.679688 181.914062 177.714844 181.1875 177.714844 C 180.457031 177.714844 179.730469 177.679688 179.007812 177.609375 C 178.28125 177.535156 177.5625 177.429688 176.847656 177.289062 C 176.132812 177.144531 175.429688 176.96875 174.730469 176.757812 C 174.035156 176.546875 173.351562 176.300781 172.675781 176.023438 C 172.003906 175.742188 171.347656 175.433594 170.703125 175.089844 C 170.0625 174.746094 169.4375 174.371094 168.832031 173.96875 C 168.226562 173.5625 167.644531 173.128906 167.082031 172.667969 C 166.519531 172.207031 165.980469 171.71875 165.464844 171.203125 C 164.949219 170.6875 164.460938 170.148438 164 169.585938 C 163.539062 169.023438 163.105469 168.441406 162.699219 167.835938 C 162.296875 167.230469 161.921875 166.605469 161.578125 165.960938 C 161.234375 165.320312 160.921875 164.664062 160.644531 163.992188 C 160.367188 163.316406 160.121094 162.632812 159.910156 161.9375 C 159.699219 161.238281 159.523438 160.535156 159.378906 159.820312 C 159.238281 159.105469 159.132812 158.386719 159.058594 157.660156 C 158.988281 156.9375 158.953125 156.210938 158.953125 155.480469 Z M 158.953125 155.480469 " fill-opacity="1" fill-rule="evenodd"/></g><g fill="#004aad" fill-opacity="1"><g transform="translate(168.367378, 172.09857)"><g/></g></g><g fill="#004aad" fill-opacity="1"><g transform="translate(192.874285, 172.09857)"><g/></g></g><g fill="#004aad" fill-opacity="1"><g transform="translate(217.383159, 172.09857)"><g><path d="M 81.046875 -82.125 C 81.609375 -82.445312 82.085938 -82.609375 82.484375 -82.609375 C 82.640625 -82.609375 82.757812 -82.566406 82.84375 -82.484375 C 83.238281 -82.328125 83.878906 -82.25 84.765625 -82.25 C 85.078125 -82.25 85.429688 -82.25 85.828125 -82.25 C 86.867188 -82.25 87.628906 -82.148438 88.109375 -81.953125 C 88.585938 -81.753906 89.304688 -81.132812 90.265625 -80.09375 C 91.929688 -78.5 92.785156 -77.382812 92.828125 -76.75 C 92.867188 -76.113281 92.890625 -75.796875 92.890625 -75.796875 C 92.890625 -74.597656 92.332031 -72.40625 91.21875 -69.21875 C 89.863281 -65.15625 88.628906 -60.890625 87.515625 -56.421875 C 86.472656 -52.203125 85.351562 -48.097656 84.15625 -44.109375 C 83.039062 -40.523438 81.882812 -36.222656 80.6875 -31.203125 C 77.1875 -16.773438 74.878906 -8.566406 73.765625 -6.578125 C 73.117188 -5.535156 72.359375 -4.773438 71.484375 -4.296875 C 70.210938 -3.660156 68.539062 -3.34375 66.46875 -3.34375 C 65.988281 -3.34375 64.953125 -3.382812 63.359375 -3.46875 C 61.765625 -3.550781 60.171875 -4.148438 58.578125 -5.265625 C 56.742188 -6.378906 54.710938 -10.320312 52.484375 -17.09375 C 51.679688 -19.96875 50.582031 -24.03125 49.1875 -29.28125 C 47.789062 -34.539062 46.894531 -38.207031 46.5 -40.28125 C 46.425781 -40.601562 46.367188 -40.882812 46.328125 -41.125 C 46.285156 -41.363281 46.222656 -41.519531 46.140625 -41.59375 C 46.066406 -41.675781 46.03125 -41.71875 46.03125 -41.71875 C 45.945312 -41.71875 45.90625 -41.71875 45.90625 -41.71875 C 45.75 -41.5625 45.3125 -40.488281 44.59375 -38.5 C 43.875 -36.101562 42.796875 -32.316406 41.359375 -27.140625 C 38.734375 -18.054688 36.78125 -12.175781 35.5 -9.5 C 34.226562 -6.832031 32.515625 -4.941406 30.359375 -3.828125 C 29.085938 -3.265625 28.269531 -2.941406 27.90625 -2.859375 C 27.550781 -2.785156 27.175781 -2.75 26.78125 -2.75 C 26.300781 -2.75 25.660156 -2.789062 24.859375 -2.875 C 23.023438 -3.03125 21.671875 -3.265625 20.796875 -3.578125 C 19.921875 -3.898438 19.082031 -4.320312 18.28125 -4.84375 C 17.488281 -5.363281 16.875 -6.300781 16.4375 -7.65625 C 16 -9.007812 15.5625 -10.519531 15.125 -12.1875 C 14.6875 -13.863281 14.1875 -16.253906 13.625 -19.359375 C 13.46875 -20.003906 12.789062 -23.789062 11.59375 -30.71875 C 9.039062 -44.269531 7.289062 -54.59375 6.34375 -61.6875 C 5.457031 -67.257812 4.773438 -70.765625 4.296875 -72.203125 C 3.742188 -73.484375 3.46875 -74.640625 3.46875 -75.671875 C 3.46875 -78.066406 4.898438 -79.898438 7.765625 -81.171875 C 9.203125 -81.804688 10.476562 -82.125 11.59375 -82.125 C 11.832031 -82.125 12.03125 -82.125 12.1875 -82.125 C 14.90625 -81.644531 17.179688 -80.53125 19.015625 -78.78125 C 19.566406 -78.21875 19.921875 -77.695312 20.078125 -77.21875 C 20.242188 -76.75 20.328125 -75.835938 20.328125 -74.484375 C 20.328125 -72.484375 20.566406 -70.289062 21.046875 -67.90625 C 21.679688 -64.632812 22.394531 -59.648438 23.1875 -52.953125 C 24.382812 -44.910156 25.179688 -39.910156 25.578125 -37.953125 C 25.984375 -36.003906 26.382812 -35.03125 26.78125 -35.03125 C 27.019531 -35.03125 27.140625 -35.109375 27.140625 -35.265625 C 27.140625 -35.585938 27.816406 -38.378906 29.171875 -43.640625 C 30.609375 -49.054688 31.765625 -53.554688 32.640625 -57.140625 C 33.515625 -60.492188 34.507812 -64.398438 35.625 -68.859375 C 36.582031 -72.441406 37.398438 -74.53125 38.078125 -75.125 C 38.753906 -75.726562 40.804688 -76.390625 44.234375 -77.109375 C 45.742188 -77.421875 47.140625 -77.578125 48.421875 -77.578125 C 51.847656 -77.578125 54.15625 -76.425781 55.34375 -74.125 C 56.300781 -72.289062 58.175781 -64.398438 60.96875 -50.453125 C 62.957031 -40.566406 64.3125 -35.625 65.03125 -35.625 C 65.351562 -35.625 65.753906 -36.820312 66.234375 -39.21875 C 66.472656 -40.25 68.066406 -46.898438 71.015625 -59.171875 C 73.878906 -70.492188 75.351562 -76.59375 75.4375 -77.46875 C 75.59375 -78.425781 76.03125 -79.320312 76.75 -80.15625 C 77.46875 -80.988281 78.222656 -81.40625 79.015625 -81.40625 C 79.816406 -81.570312 80.492188 -81.8125 81.046875 -82.125 Z M 81.046875 -82.125 "/></g></g></g><g fill="#004aad" fill-opacity="1"><g transform="translate(308.238644, 172.09857)"><g><path d="M 28.9375 -62.046875 C 29.25 -62.046875 29.601562 -62.046875 30 -62.046875 C 30.957031 -62.046875 32.351562 -61.960938 34.1875 -61.796875 C 36.019531 -61.640625 37.65625 -61.40625 39.09375 -61.09375 C 43.550781 -59.8125 47.296875 -57.695312 50.328125 -54.75 C 52.398438 -52.675781 53.875 -50.601562 54.75 -48.53125 C 55.625 -46.457031 56.0625 -43.945312 56.0625 -41 C 56.0625 -39.96875 55.960938 -39.210938 55.765625 -38.734375 C 55.566406 -38.253906 55.191406 -37.617188 54.640625 -36.828125 C 52.722656 -34.753906 49.96875 -32.679688 46.375 -30.609375 C 42.789062 -28.535156 39.128906 -27.019531 35.390625 -26.0625 C 33.390625 -25.5 31.375 -25.175781 29.34375 -25.09375 C 27.3125 -25.019531 25.976562 -24.984375 25.34375 -24.984375 C 23.113281 -24.984375 21.398438 -25.144531 20.203125 -25.46875 C 19.722656 -25.539062 19.363281 -25.578125 19.125 -25.578125 C 19.050781 -25.578125 18.953125 -25.554688 18.828125 -25.515625 C 18.710938 -25.484375 18.65625 -25.1875 18.65625 -24.625 C 18.65625 -22.394531 19.769531 -20.523438 22 -19.015625 C 23.4375 -18.054688 24.8125 -17.394531 26.125 -17.03125 C 27.4375 -16.675781 28.96875 -16.5 30.71875 -16.5 C 31.363281 -16.5 32.082031 -16.535156 32.875 -16.609375 C 36.300781 -16.847656 39.269531 -17.503906 41.78125 -18.578125 C 44.289062 -19.660156 46.742188 -21.28125 49.140625 -23.4375 C 50.648438 -24.863281 51.601562 -25.65625 52 -25.8125 C 52.394531 -25.976562 52.675781 -26.0625 52.84375 -26.0625 C 53.238281 -26.0625 53.597656 -25.78125 53.921875 -25.21875 C 54.234375 -24.664062 54.628906 -24.390625 55.109375 -24.390625 C 55.671875 -24.390625 55.988281 -24.226562 56.0625 -23.90625 C 56.144531 -23.59375 56.1875 -23.316406 56.1875 -23.078125 C 56.1875 -22.515625 56.109375 -21.796875 55.953125 -20.921875 C 55.234375 -16.929688 53.160156 -13.304688 49.734375 -10.046875 C 46.703125 -7.253906 43.648438 -5.359375 40.578125 -4.359375 C 37.515625 -3.367188 34.070312 -2.875 30.25 -2.875 C 29.375 -2.875 28.492188 -2.910156 27.609375 -2.984375 C 23.867188 -3.148438 21.359375 -3.507812 20.078125 -4.0625 C 9.085938 -7.96875 3.59375 -16.492188 3.59375 -29.640625 C 3.59375 -39.765625 7.097656 -48.054688 14.109375 -54.515625 C 16.097656 -56.347656 18.488281 -57.960938 21.28125 -59.359375 C 24.070312 -60.753906 26.625 -61.648438 28.9375 -62.046875 Z M 38.734375 -49.015625 C 37.691406 -49.890625 36.375 -50.328125 34.78125 -50.328125 C 33.75 -50.328125 32.15625 -50.023438 30 -49.421875 C 27.851562 -48.828125 25.582031 -47.175781 23.1875 -44.46875 C 22.070312 -43.4375 21.132812 -42.125 20.375 -40.53125 C 19.625 -38.9375 19.25 -37.816406 19.25 -37.171875 C 19.25 -36.941406 19.328125 -36.742188 19.484375 -36.578125 C 19.722656 -36.335938 20.125 -36.21875 20.6875 -36.21875 C 22.039062 -36.21875 24.75 -36.816406 28.8125 -38.015625 C 32.875 -39.210938 35.898438 -40.53125 37.890625 -41.96875 C 39.566406 -43.15625 40.40625 -44.390625 40.40625 -45.671875 C 40.40625 -46.785156 39.847656 -47.898438 38.734375 -49.015625 Z M 38.734375 -49.015625 "/></g></g></g><g fill="#004aad" fill-opacity="1"><g transform="translate(362.393199, 172.09857)"><g><path d="M 11.234375 -86.796875 C 11.710938 -87.109375 12.269531 -87.265625 12.90625 -87.265625 C 13.625 -87.265625 14.660156 -87.003906 16.015625 -86.484375 C 17.367188 -85.972656 19.003906 -84.757812 20.921875 -82.84375 L 22.46875 -81.296875 L 22.46875 -68.859375 C 22.46875 -61.679688 22.671875 -58.015625 23.078125 -57.859375 L 23.3125 -57.859375 C 23.875 -58.097656 25.546875 -58.816406 28.328125 -60.015625 C 31.515625 -61.285156 34.664062 -61.921875 37.78125 -61.921875 C 41.6875 -61.921875 45.59375 -60.925781 49.5 -58.9375 C 56.90625 -55.03125 61.046875 -47.976562 61.921875 -37.78125 C 62.003906 -36.738281 62.046875 -35.738281 62.046875 -34.78125 C 62.046875 -31.113281 61.382812 -27.285156 60.0625 -23.296875 C 58.75 -19.316406 56.539062 -15.695312 53.4375 -12.4375 C 50.40625 -9.25 47.351562 -6.914062 44.28125 -5.4375 C 41.21875 -3.96875 37.695312 -3.113281 33.71875 -2.875 C 32.519531 -2.789062 31.484375 -2.75 30.609375 -2.75 C 29.015625 -2.75 27.71875 -2.867188 26.71875 -3.109375 C 25.71875 -3.347656 24.0625 -4.144531 21.75 -5.5 C 20 -6.457031 18.960938 -6.972656 18.640625 -7.046875 C 18.328125 -7.128906 18.09375 -7.171875 17.9375 -7.171875 C 17.53125 -7.171875 17.007812 -7.007812 16.375 -6.6875 C 15.738281 -6.457031 15.0625 -6.34375 14.34375 -6.34375 C 13.46875 -6.34375 12.351562 -6.617188 11 -7.171875 C 9.644531 -7.734375 8.410156 -8.847656 7.296875 -10.515625 C 6.097656 -12.273438 5.476562 -14.828125 5.4375 -18.171875 C 5.394531 -21.515625 5.375 -23.347656 5.375 -23.671875 C 5.375 -30.367188 5.851562 -43.398438 6.8125 -62.765625 C 7.289062 -72.003906 7.53125 -77.660156 7.53125 -79.734375 C 7.53125 -82.203125 7.671875 -83.914062 7.953125 -84.875 C 8.234375 -85.832031 8.769531 -86.3125 9.5625 -86.3125 C 10.195312 -86.3125 10.753906 -86.472656 11.234375 -86.796875 Z M 40.765625 -46.265625 C 39.253906 -47.054688 37.617188 -47.453125 35.859375 -47.453125 C 34.898438 -47.453125 33.40625 -47.210938 31.375 -46.734375 C 29.34375 -46.265625 27.09375 -44.710938 24.625 -42.078125 C 23.425781 -40.960938 22.6875 -39.707031 22.40625 -38.3125 C 22.132812 -36.914062 21.957031 -33.191406 21.875 -27.140625 L 21.75 -19.84375 L 23.671875 -19.125 C 24.546875 -18.8125 25.738281 -18.65625 27.25 -18.65625 C 27.8125 -18.65625 28.867188 -18.710938 30.421875 -18.828125 C 31.972656 -18.953125 33.585938 -19.410156 35.265625 -20.203125 C 38.773438 -21.796875 41.445312 -24.503906 43.28125 -28.328125 C 44.226562 -30.398438 44.742188 -32.875 44.828125 -35.75 C 44.828125 -37.65625 44.804688 -39.003906 44.765625 -39.796875 C 44.722656 -40.597656 44.382812 -41.519531 43.75 -42.5625 C 42.957031 -44.3125 41.960938 -45.546875 40.765625 -46.265625 Z M 40.765625 -46.265625 "/></g></g></g><g fill="#004aad" fill-opacity="1"><g transform="translate(422.764204, 172.09857)"><g/></g></g><g fill="#004aad" fill-opacity="1"><g transform="translate(447.271111, 172.09857)"><g><path d="M 37.78125 -82.125 C 42.320312 -82.601562 45.066406 -82.863281 46.015625 -82.90625 C 46.972656 -82.945312 47.570312 -82.96875 47.8125 -82.96875 C 49.40625 -82.96875 51.238281 -82.6875 53.3125 -82.125 C 56.101562 -81.40625 58.175781 -80.488281 59.53125 -79.375 C 60.882812 -78.257812 61.5625 -77.304688 61.5625 -76.515625 C 61.5625 -76.191406 61.484375 -75.867188 61.328125 -75.546875 C 60.691406 -74.835938 60.015625 -73.445312 59.296875 -71.375 C 59.054688 -70.65625 58.71875 -70.234375 58.28125 -70.109375 C 57.84375 -69.992188 56.945312 -69.738281 55.59375 -69.34375 C 49.695312 -67.664062 42.082031 -66.46875 32.75 -65.75 C 29.007812 -65.425781 26.941406 -65.066406 26.546875 -64.671875 C 26.222656 -64.359375 25.984375 -61.332031 25.828125 -55.59375 L 25.578125 -48.421875 L 27.5 -48.78125 C 29.007812 -48.9375 30.722656 -49.210938 32.640625 -49.609375 C 36.703125 -50.566406 40.960938 -51.046875 45.421875 -51.046875 C 46.222656 -51.046875 48.175781 -50.984375 51.28125 -50.859375 C 54.394531 -50.742188 57.34375 -49.890625 60.125 -48.296875 C 61.40625 -47.578125 62.046875 -46.617188 62.046875 -45.421875 C 62.046875 -45.265625 62.003906 -44.785156 61.921875 -43.984375 C 61.847656 -43.191406 60.851562 -41.957031 58.9375 -40.28125 C 56.78125 -38.53125 54.03125 -37.578125 50.6875 -37.421875 C 48.375 -37.335938 45.703125 -37.019531 42.671875 -36.46875 C 39.003906 -35.90625 35.898438 -35.625 33.359375 -35.625 C 30.722656 -35.625 28.726562 -35.941406 27.375 -36.578125 C 26.5 -36.972656 25.863281 -37.171875 25.46875 -37.171875 C 25.382812 -37.171875 25.300781 -37.132812 25.21875 -37.0625 C 25.0625 -36.820312 24.898438 -34.347656 24.734375 -29.640625 C 24.578125 -24.941406 24.5 -21.835938 24.5 -20.328125 C 24.5 -19.128906 24.539062 -18.53125 24.625 -18.53125 C 24.863281 -18.53125 26.617188 -18.691406 29.890625 -19.015625 C 34.828125 -19.566406 39.289062 -19.84375 43.28125 -19.84375 C 48.695312 -19.84375 53.238281 -19.328125 56.90625 -18.296875 C 59.457031 -17.578125 60.953125 -17.078125 61.390625 -16.796875 C 61.828125 -16.515625 62.046875 -15.894531 62.046875 -14.9375 C 62.046875 -14.695312 62.046875 -14.457031 62.046875 -14.21875 C 62.046875 -13.34375 62.125 -12.269531 62.28125 -11 C 62.363281 -9.882812 62.40625 -9.125 62.40625 -8.71875 C 62.40625 -8.320312 62.046875 -7.765625 61.328125 -7.046875 C 60.128906 -5.929688 58.613281 -5.191406 56.78125 -4.828125 C 54.945312 -4.472656 50.285156 -4.21875 42.796875 -4.0625 C 36.984375 -3.976562 33.238281 -3.703125 31.5625 -3.234375 C 31.164062 -3.472656 30.609375 -3.59375 29.890625 -3.59375 C 20.804688 -3.113281 15.804688 -2.832031 14.890625 -2.75 C 13.972656 -2.664062 13.472656 -2.625 13.390625 -2.625 C 11.796875 -2.625 10.359375 -3.582031 9.078125 -5.5 L 8.96875 -5.625 L 8.84375 -5.734375 C 7.570312 -7.085938 6.851562 -8.203125 6.6875 -9.078125 C 6.613281 -9.316406 6.578125 -9.878906 6.578125 -10.765625 C 6.578125 -12.359375 6.695312 -15.066406 6.9375 -18.890625 C 7.25 -25.347656 7.566406 -32.125 7.890625 -39.21875 C 8.210938 -46.625 8.769531 -56.023438 9.5625 -67.421875 C 9.71875 -69.253906 9.796875 -70.570312 9.796875 -71.375 C 9.796875 -71.6875 9.773438 -72.019531 9.734375 -72.375 C 9.703125 -72.738281 9.328125 -73.476562 8.609375 -74.59375 C 7.972656 -75.632812 7.65625 -76.472656 7.65625 -77.109375 C 7.65625 -77.421875 7.851562 -77.816406 8.25 -78.296875 C 8.644531 -78.773438 10.160156 -79.054688 12.796875 -79.140625 C 14.867188 -79.222656 18.296875 -79.660156 23.078125 -80.453125 C 26.984375 -81.015625 31.882812 -81.570312 37.78125 -82.125 Z M 37.78125 -82.125 "/></g></g></g><g fill="#004aad" fill-opacity="1"><g transform="translate(507.642128, 172.09857)"><g><path d="M 11.59375 -61.453125 C 12.789062 -61.765625 14.066406 -61.921875 15.421875 -61.921875 C 18.128906 -61.921875 20.71875 -61.101562 23.1875 -59.46875 C 25.65625 -57.84375 28.085938 -55.234375 30.484375 -51.640625 L 30.84375 -50.921875 C 32.113281 -48.929688 32.789062 -47.9375 32.875 -47.9375 C 33.195312 -47.9375 34.628906 -49.289062 37.171875 -52 L 39.5625 -53.921875 C 40.445312 -54.710938 41.425781 -55.585938 42.5 -56.546875 C 43.570312 -57.503906 44.625 -58.398438 45.65625 -59.234375 C 46.695312 -60.066406 47.613281 -60.765625 48.40625 -61.328125 C 49.207031 -61.890625 49.769531 -62.171875 50.09375 -62.171875 C 50.40625 -62.171875 50.898438 -61.945312 51.578125 -61.5 C 52.253906 -61.0625 52.953125 -60.546875 53.671875 -59.953125 C 54.390625 -59.359375 55.023438 -58.78125 55.578125 -58.21875 C 56.140625 -57.65625 56.421875 -57.21875 56.421875 -56.90625 L 56.421875 -56.421875 C 56.421875 -56.179688 56.703125 -55.90625 57.265625 -55.59375 C 57.742188 -55.113281 57.984375 -54.316406 57.984375 -53.203125 L 57.984375 -52.484375 C 57.816406 -51.285156 57.015625 -49.769531 55.578125 -47.9375 C 54.148438 -46.101562 51.644531 -43.550781 48.0625 -40.28125 C 46.707031 -39.25 45.488281 -38.191406 44.40625 -37.109375 C 43.332031 -36.035156 42.4375 -35.101562 41.71875 -34.3125 L 40.28125 -32.75 L 42.4375 -29.28125 C 43.238281 -27.925781 43.914062 -26.789062 44.46875 -25.875 C 45.03125 -24.957031 45.566406 -24.179688 46.078125 -23.546875 C 46.597656 -22.910156 47.132812 -22.375 47.6875 -21.9375 C 48.25 -21.5 48.890625 -21.082031 49.609375 -20.6875 C 50.085938 -20.207031 50.6875 -19.847656 51.40625 -19.609375 C 52.125 -19.367188 52.800781 -19.207031 53.4375 -19.125 C 53.832031 -19.207031 54.25 -19.304688 54.6875 -19.421875 C 55.125 -19.546875 55.546875 -19.6875 55.953125 -19.84375 C 56.347656 -20 56.703125 -20.15625 57.015625 -20.3125 C 57.335938 -20.476562 57.578125 -20.5625 57.734375 -20.5625 C 58.296875 -20.5625 58.578125 -20.242188 58.578125 -19.609375 C 58.578125 -19.046875 58.457031 -18.523438 58.21875 -18.046875 C 58.0625 -17.492188 57.941406 -16.9375 57.859375 -16.375 C 57.773438 -15.820312 57.734375 -15.34375 57.734375 -14.9375 L 57.734375 -14.703125 C 57.734375 -10.316406 55.863281 -6.8125 52.125 -4.1875 C 50.375 -3.382812 48.78125 -2.984375 47.34375 -2.984375 C 45.820312 -2.984375 44.242188 -3.484375 42.609375 -4.484375 C 40.984375 -5.484375 39.410156 -6.71875 37.890625 -8.1875 C 36.378906 -9.664062 35.003906 -11.238281 33.765625 -12.90625 C 32.535156 -14.582031 31.5625 -16.097656 30.84375 -17.453125 L 29.40625 -20.328125 L 27.5 -18.296875 C 25.976562 -16.859375 23.585938 -14.109375 20.328125 -10.046875 C 18.734375 -8.210938 17.359375 -6.734375 16.203125 -5.609375 C 15.046875 -4.492188 14.03125 -3.738281 13.15625 -3.34375 C 12.75 -3.101562 12.40625 -2.84375 12.125 -2.5625 C 11.851562 -2.289062 11.675781 -2.070312 11.59375 -1.90625 C 11.4375 -1.75 11.195312 -1.671875 10.875 -1.671875 C 10.5625 -1.671875 10.144531 -1.8125 9.625 -2.09375 C 9.101562 -2.375 8.582031 -2.734375 8.0625 -3.171875 C 7.550781 -3.609375 7.054688 -4.046875 6.578125 -4.484375 C 6.097656 -4.921875 5.78125 -5.300781 5.625 -5.625 L 5.375 -5.984375 L 5.140625 -6.453125 C 4.421875 -6.453125 4.0625 -7.09375 4.0625 -8.375 L 4.0625 -9.078125 C 4.144531 -9.316406 4.1875 -9.640625 4.1875 -10.046875 C 4.34375 -10.679688 4.421875 -11.15625 4.421875 -11.46875 L 4.546875 -11.953125 C 4.703125 -13.234375 5.117188 -14.445312 5.796875 -15.59375 C 6.472656 -16.75 7.769531 -18.523438 9.6875 -20.921875 L 10.40625 -21.640625 C 10.800781 -22.117188 11.238281 -22.632812 11.71875 -23.1875 C 12.195312 -23.75 12.632812 -24.269531 13.03125 -24.75 C 13.90625 -25.78125 14.738281 -26.773438 15.53125 -27.734375 C 16.332031 -28.691406 17.09375 -29.609375 17.8125 -30.484375 C 18.925781 -31.597656 19.800781 -32.59375 20.4375 -33.46875 C 21.082031 -34.34375 21.40625 -34.984375 21.40625 -35.390625 C 21.40625 -35.867188 21.203125 -36.566406 20.796875 -37.484375 C 20.398438 -38.398438 19.921875 -39.332031 19.359375 -40.28125 C 18.804688 -41.238281 18.25 -42.15625 17.6875 -43.03125 C 17.132812 -43.914062 16.695312 -44.554688 16.375 -44.953125 C 15.976562 -45.503906 15.640625 -45.898438 15.359375 -46.140625 C 15.078125 -46.378906 14.695312 -46.5 14.21875 -46.5 C 13.269531 -46.5 12.554688 -46.222656 12.078125 -45.671875 C 10.878906 -45.191406 10 -44.953125 9.4375 -44.953125 C 8.488281 -44.953125 7.535156 -45.367188 6.578125 -46.203125 C 5.617188 -47.035156 4.703125 -48.410156 3.828125 -50.328125 L 3.703125 -50.6875 C 3.628906 -50.84375 3.507812 -51.097656 3.34375 -51.453125 C 3.1875 -51.816406 3.023438 -52.195312 2.859375 -52.59375 C 2.703125 -53 2.546875 -53.359375 2.390625 -53.671875 C 2.234375 -53.992188 2.15625 -54.195312 2.15625 -54.28125 C 2.15625 -54.75 2.570312 -55.582031 3.40625 -56.78125 C 4.238281 -57.976562 5.175781 -58.894531 6.21875 -59.53125 C 6.9375 -59.925781 7.789062 -60.300781 8.78125 -60.65625 C 9.78125 -61.019531 10.71875 -61.285156 11.59375 -61.453125 Z M 11.59375 -61.453125 "/></g></g></g><g fill="#004aad" fill-opacity="1"><g transform="translate(563.948535, 172.09857)"><g><path d="M 8.015625 -60.84375 C 8.804688 -62.125 9.640625 -62.765625 10.515625 -62.765625 C 11.148438 -62.765625 13.144531 -61.445312 16.5 -58.8125 L 21.40625 -54.75 L 23.796875 -56.671875 C 25.304688 -57.941406 27.414062 -59.253906 30.125 -60.609375 C 32.519531 -61.804688 34.832031 -62.40625 37.0625 -62.40625 C 38.414062 -62.40625 39.726562 -62.207031 41 -61.8125 C 49.613281 -59.09375 55.394531 -54.765625 58.34375 -48.828125 C 61.289062 -42.890625 62.765625 -37.570312 62.765625 -32.875 C 62.765625 -29.125 62.125 -25.300781 60.84375 -21.40625 C 59.894531 -18.375 58.679688 -15.820312 57.203125 -13.75 C 55.722656 -11.675781 53.671875 -9.722656 51.046875 -7.890625 C 46.984375 -4.859375 43.65625 -3.300781 41.0625 -3.21875 C 38.46875 -3.144531 37.054688 -3.109375 36.828125 -3.109375 C 32.203125 -3.109375 28.296875 -4.460938 25.109375 -7.171875 C 23.671875 -8.210938 22.753906 -8.734375 22.359375 -8.734375 C 22.273438 -8.734375 22.191406 -8.691406 22.109375 -8.609375 C 22.035156 -8.523438 22 -6.53125 22 -2.625 C 22 -1.351562 22 0.117188 22 1.796875 C 22 9.046875 21.957031 13.269531 21.875 14.46875 C 21.789062 15.664062 21.472656 16.820312 20.921875 17.9375 C 20.203125 19.6875 19.328125 20.800781 18.296875 21.28125 C 17.972656 21.363281 17.429688 21.601562 16.671875 22 C 15.921875 22.394531 15.503906 22.59375 15.421875 22.59375 C 14.617188 22.988281 13.382812 23.1875 11.71875 23.1875 C 10.519531 23.1875 9.738281 23.109375 9.375 22.953125 C 9.019531 22.796875 8.566406 22.28125 8.015625 21.40625 C 6.660156 19.332031 5.898438 17.117188 5.734375 14.765625 C 5.578125 12.410156 5.5 9.320312 5.5 5.5 C 5.5 1.675781 5.539062 -3.265625 5.625 -9.328125 C 5.695312 -11.640625 5.832031 -15.523438 6.03125 -20.984375 C 6.238281 -26.441406 6.34375 -29.804688 6.34375 -31.078125 C 6.5 -38.492188 6.695312 -44.472656 6.9375 -49.015625 C 7.007812 -50.929688 7.046875 -52.566406 7.046875 -53.921875 C 7.046875 -55.585938 6.96875 -56.703125 6.8125 -57.265625 C 6.65625 -57.898438 6.578125 -58.378906 6.578125 -58.703125 C 6.578125 -58.859375 6.59375 -59.054688 6.625 -59.296875 C 6.664062 -59.535156 7.128906 -60.050781 8.015625 -60.84375 Z M 41.25 -46.859375 C 39.894531 -47.492188 38.535156 -47.8125 37.171875 -47.8125 C 35.578125 -47.8125 33.984375 -47.375 32.390625 -46.5 C 29.441406 -45.144531 27.007812 -42.992188 25.09375 -40.046875 C 23.1875 -37.097656 22.234375 -34.148438 22.234375 -31.203125 C 22.234375 -31.117188 22.234375 -31 22.234375 -30.84375 C 22.234375 -29.40625 22.375 -28.328125 22.65625 -27.609375 C 22.9375 -26.898438 23.394531 -25.984375 24.03125 -24.859375 C 25.9375 -21.835938 27.863281 -19.988281 29.8125 -19.3125 C 31.769531 -18.632812 33.304688 -18.296875 34.421875 -18.296875 C 36.023438 -18.296875 37.660156 -18.691406 39.328125 -19.484375 C 44.429688 -22.035156 47.140625 -26.617188 47.453125 -33.234375 C 47.453125 -33.710938 47.453125 -34.148438 47.453125 -34.546875 C 47.453125 -40.847656 45.382812 -44.953125 41.25 -46.859375 Z M 41.25 -46.859375 "/></g></g></g><g fill="#004aad" fill-opacity="1"><g transform="translate(625.036836, 172.09857)"><g><path d="M 28.9375 -62.046875 C 29.25 -62.046875 29.601562 -62.046875 30 -62.046875 C 30.957031 -62.046875 32.351562 -61.960938 34.1875 -61.796875 C 36.019531 -61.640625 37.65625 -61.40625 39.09375 -61.09375 C 43.550781 -59.8125 47.296875 -57.695312 50.328125 -54.75 C 52.398438 -52.675781 53.875 -50.601562 54.75 -48.53125 C 55.625 -46.457031 56.0625 -43.945312 56.0625 -41 C 56.0625 -39.96875 55.960938 -39.210938 55.765625 -38.734375 C 55.566406 -38.253906 55.191406 -37.617188 54.640625 -36.828125 C 52.722656 -34.753906 49.96875 -32.679688 46.375 -30.609375 C 42.789062 -28.535156 39.128906 -27.019531 35.390625 -26.0625 C 33.390625 -25.5 31.375 -25.175781 29.34375 -25.09375 C 27.3125 -25.019531 25.976562 -24.984375 25.34375 -24.984375 C 23.113281 -24.984375 21.398438 -25.144531 20.203125 -25.46875 C 19.722656 -25.539062 19.363281 -25.578125 19.125 -25.578125 C 19.050781 -25.578125 18.953125 -25.554688 18.828125 -25.515625 C 18.710938 -25.484375 18.65625 -25.1875 18.65625 -24.625 C 18.65625 -22.394531 19.769531 -20.523438 22 -19.015625 C 23.4375 -18.054688 24.8125 -17.394531 26.125 -17.03125 C 27.4375 -16.675781 28.96875 -16.5 30.71875 -16.5 C 31.363281 -16.5 32.082031 -16.535156 32.875 -16.609375 C 36.300781 -16.847656 39.269531 -17.503906 41.78125 -18.578125 C 44.289062 -19.660156 46.742188 -21.28125 49.140625 -23.4375 C 50.648438 -24.863281 51.601562 -25.65625 52 -25.8125 C 52.394531 -25.976562 52.675781 -26.0625 52.84375 -26.0625 C 53.238281 -26.0625 53.597656 -25.78125 53.921875 -25.21875 C 54.234375 -24.664062 54.628906 -24.390625 55.109375 -24.390625 C 55.671875 -24.390625 55.988281 -24.226562 56.0625 -23.90625 C 56.144531 -23.59375 56.1875 -23.316406 56.1875 -23.078125 C 56.1875 -22.515625 56.109375 -21.796875 55.953125 -20.921875 C 55.234375 -16.929688 53.160156 -13.304688 49.734375 -10.046875 C 46.703125 -7.253906 43.648438 -5.359375 40.578125 -4.359375 C 37.515625 -3.367188 34.070312 -2.875 30.25 -2.875 C 29.375 -2.875 28.492188 -2.910156 27.609375 -2.984375 C 23.867188 -3.148438 21.359375 -3.507812 20.078125 -4.0625 C 9.085938 -7.96875 3.59375 -16.492188 3.59375 -29.640625 C 3.59375 -39.765625 7.097656 -48.054688 14.109375 -54.515625 C 16.097656 -56.347656 18.488281 -57.960938 21.28125 -59.359375 C 24.070312 -60.753906 26.625 -61.648438 28.9375 -62.046875 Z M 38.734375 -49.015625 C 37.691406 -49.890625 36.375 -50.328125 34.78125 -50.328125 C 33.75 -50.328125 32.15625 -50.023438 30 -49.421875 C 27.851562 -48.828125 25.582031 -47.175781 23.1875 -44.46875 C 22.070312 -43.4375 21.132812 -42.125 20.375 -40.53125 C 19.625 -38.9375 19.25 -37.816406 19.25 -37.171875 C 19.25 -36.941406 19.328125 -36.742188 19.484375 -36.578125 C 19.722656 -36.335938 20.125 -36.21875 20.6875 -36.21875 C 22.039062 -36.21875 24.75 -36.816406 28.8125 -38.015625 C 32.875 -39.210938 35.898438 -40.53125 37.890625 -41.96875 C 39.566406 -43.15625 40.40625 -44.390625 40.40625 -45.671875 C 40.40625 -46.785156 39.847656 -47.898438 38.734375 -49.015625 Z M 38.734375 -49.015625 "/></g></g></g><g fill="#004aad" fill-opacity="1"><g transform="translate(679.191368, 172.09857)"><g><path d="M 34.3125 -62.40625 C 35.269531 -62.957031 35.75 -63.234375 35.75 -63.234375 C 35.820312 -63.234375 36.21875 -62.835938 36.9375 -62.046875 C 37.738281 -61.085938 38.257812 -60.609375 38.5 -60.609375 C 38.894531 -60.609375 39.453125 -59.710938 40.171875 -57.921875 C 40.890625 -56.128906 41.25 -54.796875 41.25 -53.921875 C 41.164062 -52.085938 40.722656 -50.410156 39.921875 -48.890625 C 39.765625 -48.578125 39.566406 -48.421875 39.328125 -48.421875 C 39.171875 -48.421875 39.050781 -48.457031 38.96875 -48.53125 C 38.726562 -48.613281 38.488281 -48.65625 38.25 -48.65625 C 37.0625 -48.65625 35.367188 -47.914062 33.171875 -46.4375 C 30.984375 -44.96875 28.65625 -42.757812 26.1875 -39.8125 C 26.101562 -39.726562 26.0625 -39.644531 26.0625 -39.5625 L 25.9375 -39.5625 C 25.9375 -39.488281 25.898438 -39.453125 25.828125 -39.453125 L 25.828125 -39.328125 C 25.660156 -39.085938 25.421875 -38.769531 25.109375 -38.375 C 24.304688 -37.414062 23.722656 -36.695312 23.359375 -36.21875 C 23.003906 -35.738281 22.664062 -35.21875 22.34375 -34.65625 C 22.03125 -34.101562 21.8125 -33.523438 21.6875 -32.921875 C 21.570312 -32.328125 21.492188 -31.53125 21.453125 -30.53125 C 21.421875 -29.539062 21.363281 -27.769531 21.28125 -25.21875 C 21.28125 -25.144531 21.28125 -25.109375 21.28125 -25.109375 L 21.28125 -24.984375 C 21.28125 -24.984375 21.28125 -24.941406 21.28125 -24.859375 L 21.28125 -24.75 C 21.28125 -24.664062 21.28125 -24.582031 21.28125 -24.5 L 21.28125 -24.390625 C 21.28125 -24.390625 21.28125 -24.347656 21.28125 -24.265625 L 21.28125 -24.15625 C 21.28125 -24.15625 21.28125 -24.113281 21.28125 -24.03125 L 21.28125 -23.796875 C 21.28125 -23.628906 21.28125 -23.507812 21.28125 -23.4375 L 21.28125 -22.359375 C 21.28125 -22.273438 21.28125 -22.234375 21.28125 -22.234375 L 21.28125 -22 C 21.125 -16.8125 20.960938 -13.34375 20.796875 -11.59375 C 20.640625 -9.84375 20.359375 -8.53125 19.953125 -7.65625 C 19.554688 -6.78125 18.765625 -5.820312 17.578125 -4.78125 C 16.703125 -4.0625 16.003906 -3.601562 15.484375 -3.40625 C 14.960938 -3.207031 13.945312 -3.109375 12.4375 -3.109375 C 11.71875 -3.109375 11.117188 -3.109375 10.640625 -3.109375 C 9.921875 -3.109375 9.363281 -3.144531 8.96875 -3.21875 C 8.570312 -3.300781 8.09375 -3.625 7.53125 -4.1875 C 6.332031 -5.382812 5.632812 -7.21875 5.4375 -9.6875 C 5.238281 -12.15625 5.140625 -17.453125 5.140625 -25.578125 C 5.140625 -28.367188 5.140625 -31.4375 5.140625 -34.78125 C 5.140625 -38.851562 5.140625 -42.441406 5.140625 -45.546875 C 5.140625 -54.796875 5.0625 -59.539062 4.90625 -59.78125 C 4.820312 -59.851562 4.78125 -59.96875 4.78125 -60.125 C 4.78125 -60.363281 4.941406 -60.644531 5.265625 -60.96875 C 5.742188 -61.53125 7.015625 -61.8125 9.078125 -61.8125 C 9.398438 -61.8125 9.757812 -61.8125 10.15625 -61.8125 C 14.695312 -61.8125 17.207031 -61.289062 17.6875 -60.25 C 17.925781 -59.769531 18.40625 -57.898438 19.125 -54.640625 C 19.519531 -52.960938 19.816406 -52.039062 20.015625 -51.875 C 20.222656 -51.71875 20.328125 -51.640625 20.328125 -51.640625 C 20.804688 -51.640625 21.800781 -52.398438 23.3125 -53.921875 C 24.988281 -55.585938 26.898438 -57.257812 29.046875 -58.9375 C 31.203125 -60.613281 32.957031 -61.769531 34.3125 -62.40625 Z M 34.3125 -62.40625 "/></g></g></g><g fill="#004aad" fill-opacity="1"><g transform="translate(716.131175, 172.09857)"><g><path d="M 18.65625 -83.921875 C 19.53125 -84.160156 20.328125 -84.28125 21.046875 -84.28125 C 22.078125 -84.28125 22.953125 -84.039062 23.671875 -83.5625 C 24.628906 -82.84375 26.222656 -82.046875 28.453125 -81.171875 C 30.921875 -80.140625 32.316406 -79.382812 32.640625 -78.90625 C 32.710938 -78.738281 32.75 -78.335938 32.75 -77.703125 C 32.75 -76.585938 32.628906 -74.875 32.390625 -72.5625 C 31.992188 -68.34375 31.757812 -65.789062 31.6875 -64.90625 L 31.5625 -62.875 L 38.015625 -62.875 C 39.210938 -62.875 40.207031 -62.875 41 -62.875 C 42.28125 -62.875 43.273438 -62.832031 43.984375 -62.75 C 44.703125 -62.675781 45.300781 -62.441406 45.78125 -62.046875 C 47.300781 -61.003906 48.238281 -59.960938 48.59375 -58.921875 C 48.957031 -57.890625 49.140625 -57.175781 49.140625 -56.78125 C 49.140625 -56.0625 48.816406 -55.546875 48.171875 -55.234375 C 47.378906 -54.835938 46.863281 -54.238281 46.625 -53.4375 C 46.382812 -52.800781 45.90625 -52.398438 45.1875 -52.234375 C 42.875 -51.835938 40.023438 -51.300781 36.640625 -50.625 C 33.253906 -49.945312 31.484375 -49.53125 31.328125 -49.375 C 31.160156 -49.132812 30.878906 -46.640625 30.484375 -41.890625 C 30.085938 -37.148438 29.804688 -32.867188 29.640625 -29.046875 C 29.640625 -27.929688 29.640625 -26.9375 29.640625 -26.0625 C 29.640625 -24.226562 29.695312 -22.648438 29.8125 -21.328125 C 29.9375 -20.015625 30.597656 -18.84375 31.796875 -17.8125 C 32.515625 -17.09375 33.113281 -16.710938 33.59375 -16.671875 C 34.070312 -16.628906 35.304688 -16.609375 37.296875 -16.609375 C 39.128906 -16.609375 40.460938 -16.664062 41.296875 -16.78125 C 42.140625 -16.90625 43.238281 -17.289062 44.59375 -17.9375 C 46.257812 -18.726562 47.8125 -19.679688 49.25 -20.796875 C 49.570312 -21.117188 49.890625 -21.359375 50.203125 -21.515625 C 50.523438 -21.671875 50.785156 -21.789062 50.984375 -21.875 C 51.179688 -21.957031 51.28125 -22 51.28125 -22 C 51.363281 -22 51.40625 -21.957031 51.40625 -21.875 C 51.40625 -21.875 51.40625 -21.832031 51.40625 -21.75 C 51.40625 -21.351562 50.6875 -19.484375 49.25 -16.140625 C 47.65625 -12.472656 46.0625 -9.84375 44.46875 -8.25 C 41.519531 -5.300781 38.945312 -3.726562 36.75 -3.53125 C 34.5625 -3.332031 33.226562 -3.234375 32.75 -3.234375 C 29.40625 -3.234375 26.140625 -4.226562 22.953125 -6.21875 C 19.765625 -8.207031 17.332031 -11.273438 15.65625 -15.421875 C 14.539062 -18.367188 13.984375 -23.867188 13.984375 -31.921875 C 13.984375 -33.359375 13.984375 -34.875 13.984375 -36.46875 C 14.140625 -41.164062 14.21875 -44.234375 14.21875 -45.671875 L 14.21875 -48.0625 L 10.640625 -48.78125 C 9.046875 -49.09375 7.945312 -49.390625 7.34375 -49.671875 C 6.75 -49.953125 5.734375 -50.804688 4.296875 -52.234375 C 2.304688 -54.148438 1.3125 -55.628906 1.3125 -56.671875 C 1.3125 -57.859375 1.707031 -58.648438 2.5 -59.046875 C 3.300781 -59.453125 5.378906 -59.695312 8.734375 -59.78125 C 12.390625 -59.9375 14.335938 -60.132812 14.578125 -60.375 C 14.984375 -60.613281 15.34375 -62.445312 15.65625 -65.875 C 15.894531 -68.976562 16.210938 -72.046875 16.609375 -75.078125 C 16.773438 -76.347656 16.859375 -77.382812 16.859375 -78.1875 C 16.859375 -79.300781 16.738281 -80.097656 16.5 -80.578125 C 16.257812 -81.128906 16.140625 -81.566406 16.140625 -81.890625 C 16.140625 -82.210938 16.273438 -82.550781 16.546875 -82.90625 C 16.828125 -83.257812 17.53125 -83.597656 18.65625 -83.921875 Z M 18.65625 -83.921875 "/></g></g></g><g fill="#004aad" fill-opacity="1"><g transform="translate(762.156534, 172.09857)"><g><path d="M 9.203125 -85 C 10.078125 -85.632812 11.113281 -85.953125 12.3125 -85.953125 C 13.90625 -85.953125 15.78125 -85.351562 17.9375 -84.15625 C 19.53125 -83.28125 20.5625 -82.484375 21.03125 -81.765625 C 21.507812 -81.046875 21.789062 -79.890625 21.875 -78.296875 C 21.875 -77.179688 21.796875 -76.40625 21.640625 -75.96875 C 21.484375 -75.53125 21.003906 -74.914062 20.203125 -74.125 C 19.085938 -72.84375 17.613281 -72.003906 15.78125 -71.609375 C 14.820312 -71.285156 14.023438 -71.125 13.390625 -71.125 C 13.304688 -71.125 13.101562 -71.144531 12.78125 -71.1875 C 12.46875 -71.226562 11.710938 -71.445312 10.515625 -71.84375 C 9.328125 -72.320312 8.507812 -72.71875 8.0625 -73.03125 C 7.625 -73.351562 7.164062 -73.992188 6.6875 -74.953125 C 5.8125 -76.472656 5.253906 -77.75 5.015625 -78.78125 C 4.859375 -79.175781 4.78125 -79.535156 4.78125 -79.859375 C 4.78125 -80.097656 4.859375 -80.351562 5.015625 -80.625 C 5.179688 -80.90625 5.625 -81.40625 6.34375 -82.125 C 7.53125 -83.476562 8.484375 -84.4375 9.203125 -85 Z M 9.203125 -60.84375 C 10.796875 -61.488281 12.269531 -61.8125 13.625 -61.8125 C 14.90625 -61.8125 16.101562 -61.53125 17.21875 -60.96875 C 19.050781 -60.007812 20.164062 -59.03125 20.5625 -58.03125 C 20.957031 -57.039062 21.273438 -54.550781 21.515625 -50.5625 C 21.597656 -49.289062 21.640625 -47.617188 21.640625 -45.546875 C 21.640625 -39.328125 21.359375 -29.644531 20.796875 -16.5 C 20.722656 -12.75 20.445312 -10.175781 19.96875 -8.78125 C 19.488281 -7.382812 18.367188 -5.8125 16.609375 -4.0625 C 15.660156 -3.101562 14.96875 -2.546875 14.53125 -2.390625 C 14.09375 -2.234375 13.429688 -2.15625 12.546875 -2.15625 C 11.035156 -2.226562 9.898438 -2.460938 9.140625 -2.859375 C 8.390625 -3.265625 7.691406 -4.066406 7.046875 -5.265625 C 5.929688 -7.335938 5.3125 -9.523438 5.1875 -11.828125 C 5.070312 -14.140625 5.015625 -16.132812 5.015625 -17.8125 C 5.015625 -21.238281 5.132812 -25.703125 5.375 -31.203125 C 5.78125 -38.691406 5.984375 -44.90625 5.984375 -49.84375 C 6.140625 -55.582031 6.335938 -58.691406 6.578125 -59.171875 C 6.734375 -59.648438 7.609375 -60.207031 9.203125 -60.84375 Z M 9.203125 -60.84375 "/></g></g></g><g fill="#004aad" fill-opacity="1"><g transform="translate(783.435686, 172.09857)"><g><path d="M 48.0625 -62.515625 C 48.132812 -62.597656 48.253906 -62.640625 48.421875 -62.640625 C 48.578125 -62.640625 48.734375 -62.5625 48.890625 -62.40625 C 52.160156 -60.332031 54.253906 -58.675781 55.171875 -57.4375 C 56.085938 -56.207031 56.546875 -54.875 56.546875 -53.4375 C 56.546875 -51.84375 55.90625 -50.304688 54.625 -48.828125 C 53.351562 -47.359375 50.6875 -44.472656 46.625 -40.171875 C 33.46875 -26.535156 26.8125 -19.28125 26.65625 -18.40625 C 26.65625 -18.332031 26.65625 -18.296875 26.65625 -18.296875 C 26.65625 -18.128906 26.734375 -18.046875 26.890625 -18.046875 C 27.128906 -17.972656 27.453125 -17.9375 27.859375 -17.9375 C 28.804688 -17.9375 30.359375 -18.09375 32.515625 -18.40625 C 35.859375 -18.644531 40.519531 -18.882812 46.5 -19.125 C 47.21875 -19.125 47.894531 -19.125 48.53125 -19.125 C 49.8125 -19.125 50.890625 -19.0625 51.765625 -18.9375 C 52.640625 -18.820312 53.414062 -18.664062 54.09375 -18.46875 C 54.769531 -18.269531 55.144531 -18.128906 55.21875 -18.046875 C 55.300781 -17.972656 55.34375 -17.894531 55.34375 -17.8125 C 55.34375 -17.8125 55.34375 -17.769531 55.34375 -17.6875 C 55.34375 -17.613281 55.34375 -17.535156 55.34375 -17.453125 C 55.34375 -17.054688 55.503906 -16.773438 55.828125 -16.609375 C 56.304688 -16.453125 56.785156 -15.859375 57.265625 -14.828125 C 57.816406 -13.785156 58.332031 -12.867188 58.8125 -12.078125 C 59.21875 -11.515625 59.421875 -11.035156 59.421875 -10.640625 C 59.421875 -10.640625 59.398438 -10.539062 59.359375 -10.34375 C 59.316406 -10.144531 58.9375 -9.445312 58.21875 -8.25 C 57.257812 -6.332031 56.582031 -5.21875 56.1875 -4.90625 C 55.863281 -4.738281 53.789062 -4.65625 49.96875 -4.65625 C 48.613281 -4.65625 47.097656 -4.65625 45.421875 -4.65625 C 38.015625 -4.414062 31.125 -4.21875 24.75 -4.0625 C 19.96875 -3.90625 16.257812 -3.828125 13.625 -3.828125 C 12.75 -3.828125 11.515625 -3.84375 9.921875 -3.875 C 8.328125 -3.914062 7.050781 -4.257812 6.09375 -4.90625 C 5.21875 -5.457031 4.460938 -6.410156 3.828125 -7.765625 C 3.191406 -9.117188 2.832031 -10.632812 2.75 -12.3125 C 2.75 -12.394531 2.75 -12.4375 2.75 -12.4375 C 2.75 -12.4375 2.75 -12.472656 2.75 -12.546875 L 2.75 -12.90625 C 2.75 -12.988281 2.75 -13.070312 2.75 -13.15625 C 2.75 -14.664062 3.503906 -16.273438 5.015625 -17.984375 C 6.535156 -19.703125 11.71875 -25.265625 20.5625 -34.671875 C 22.238281 -36.503906 23.550781 -37.898438 24.5 -38.859375 C 27.613281 -42.203125 29.289062 -44.070312 29.53125 -44.46875 C 29.769531 -44.789062 29.890625 -45.03125 29.890625 -45.1875 C 29.890625 -45.269531 29.828125 -45.328125 29.703125 -45.359375 C 29.585938 -45.398438 29.171875 -45.421875 28.453125 -45.421875 C 27.492188 -45.421875 25.757812 -45.28125 23.25 -45 C 20.738281 -44.726562 18.566406 -44.59375 16.734375 -44.59375 C 15.859375 -44.59375 15.019531 -44.628906 14.21875 -44.703125 C 12.550781 -44.785156 11.4375 -44.925781 10.875 -45.125 C 10.320312 -45.320312 9.722656 -45.703125 9.078125 -46.265625 C 7.960938 -47.140625 7.003906 -48.570312 6.203125 -50.5625 C 5.410156 -52.5625 5.015625 -54.316406 5.015625 -55.828125 L 5.015625 -58.453125 L 9.203125 -58.34375 C 11.671875 -58.582031 15.175781 -58.941406 19.71875 -59.421875 C 24.34375 -59.890625 28.210938 -60.207031 31.328125 -60.375 C 34.828125 -60.6875 38.429688 -61.0625 42.140625 -61.5 C 45.847656 -61.945312 47.820312 -62.285156 48.0625 -62.515625 Z M 48.0625 -62.515625 "/></g></g></g><g fill="#004aad" fill-opacity="1"><g transform="translate(839.383428, 172.09857)"><g><path d="M 22.234375 -60.84375 C 23.828125 -61.488281 26.378906 -61.8125 29.890625 -61.8125 C 33.316406 -61.8125 36.144531 -61.410156 38.375 -60.609375 C 41.476562 -59.578125 43.988281 -58.300781 45.90625 -56.78125 C 47.820312 -55.269531 49.695312 -53.078125 51.53125 -50.203125 C 52.71875 -48.609375 53.550781 -47.175781 54.03125 -45.90625 C 54.507812 -44.632812 54.945312 -42.878906 55.34375 -40.640625 C 55.75 -38.410156 55.953125 -36.222656 55.953125 -34.078125 C 55.953125 -28.972656 54.675781 -23.550781 52.125 -17.8125 C 49.570312 -12.070312 45.503906 -7.96875 39.921875 -5.5 C 36.492188 -3.90625 33.742188 -3.066406 31.671875 -2.984375 C 29.609375 -2.910156 28.375 -2.875 27.96875 -2.875 C 24.707031 -2.875 21.835938 -3.46875 19.359375 -4.65625 C 15.535156 -6.25 12.429688 -8.601562 10.046875 -11.71875 C 7.578125 -14.90625 5.941406 -17.710938 5.140625 -20.140625 C 4.335938 -22.578125 3.859375 -26.066406 3.703125 -30.609375 C 3.703125 -31.242188 3.703125 -31.835938 3.703125 -32.390625 C 3.703125 -35.179688 3.878906 -37.632812 4.234375 -39.75 C 4.597656 -41.863281 5.378906 -44.273438 6.578125 -46.984375 C 7.929688 -50.253906 10.019531 -53.144531 12.84375 -55.65625 C 15.675781 -58.164062 18.804688 -59.894531 22.234375 -60.84375 Z M 32.640625 -47.578125 C 31.441406 -48.054688 30.441406 -48.296875 29.640625 -48.296875 C 29.484375 -48.296875 29.125 -48.253906 28.5625 -48.171875 C 28.007812 -48.097656 27.132812 -47.539062 25.9375 -46.5 C 22.59375 -44.425781 20.285156 -41.476562 19.015625 -37.65625 C 18.535156 -36.300781 18.296875 -34.546875 18.296875 -32.390625 C 18.296875 -31.597656 18.332031 -30.722656 18.40625 -29.765625 C 18.570312 -27.617188 18.769531 -26.203125 19 -25.515625 C 19.238281 -24.835938 19.71875 -23.941406 20.4375 -22.828125 C 21.394531 -21.398438 22.609375 -20.363281 24.078125 -19.71875 C 25.554688 -19.082031 26.972656 -18.765625 28.328125 -18.765625 C 28.648438 -18.765625 28.96875 -18.765625 29.28125 -18.765625 C 31.195312 -18.929688 33.148438 -19.847656 35.140625 -21.515625 C 37.140625 -23.191406 38.65625 -25.625 39.6875 -28.8125 C 40.320312 -30.644531 40.640625 -32.476562 40.640625 -34.3125 C 40.640625 -36.300781 40.101562 -38.707031 39.03125 -41.53125 C 37.957031 -44.363281 35.828125 -46.378906 32.640625 -47.578125 Z M 32.640625 -47.578125 "/></g></g></g></svg>